<svg xmlns="http://www.w3.org/2000/svg" xmlns:xlink="http://www.w3.org/1999/xlink" zoomAndPan="magnify" preserveAspectRatio="xMidYMid meet" version="1.0" viewBox="135.68 96.14 96.56 26.25"><defs><g/><clipPath id="b596fb50ee"><path d="M 135.675781 96.140625 L 158.921875 96.140625 L 158.921875 122.390625 L 135.675781 122.390625 Z M 135.675781 96.140625 " clip-rule="nonzero"/></clipPath></defs><g clip-path="url(#b596fb50ee)"><path fill="#01a2e9" d="M 138.699219 111.265625 C 138.960938 111.265625 139.203125 111.347656 139.398438 111.496094 C 139.5625 111.617188 139.691406 111.78125 139.773438 111.96875 L 149.472656 111.96875 C 149.5625 111.691406 149.734375 111.441406 149.960938 111.265625 C 150.21875 111.058594 150.546875 110.933594 150.914062 110.933594 C 151.328125 110.933594 151.699219 111.101562 151.976562 111.363281 C 152.246094 111.632812 152.417969 111.996094 152.417969 112.40625 C 152.417969 112.808594 152.246094 113.183594 151.976562 113.445312 C 151.703125 113.714844 151.332031 113.878906 150.914062 113.878906 C 150.554688 113.878906 150.226562 113.757812 149.960938 113.550781 C 149.734375 113.367188 149.5625 113.125 149.472656 112.847656 L 139.777344 112.847656 C 139.699219 113.035156 139.570312 113.199219 139.402344 113.320312 C 139.207031 113.460938 138.96875 113.546875 138.703125 113.546875 C 138.378906 113.546875 138.089844 113.417969 137.875 113.214844 C 137.664062 113.007812 137.535156 112.726562 137.535156 112.40625 C 137.535156 112.09375 137.664062 111.8125 137.875 111.59375 C 138.085938 111.390625 138.375 111.265625 138.699219 111.265625 Z M 149.316406 119.457031 C 149.886719 118.261719 150.757812 117.726562 151.699219 117.5 C 152.644531 117.277344 153.640625 117.382812 154.464844 117.472656 L 154.683594 117.496094 L 154.867188 117.515625 C 154.980469 117.519531 155.082031 117.527344 155.171875 117.515625 C 155.265625 117.511719 155.351562 117.496094 155.421875 117.472656 C 155.511719 117.445312 155.582031 117.410156 155.644531 117.363281 C 155.710938 117.316406 155.765625 117.253906 155.808594 117.183594 C 155.851562 117.117188 155.886719 117.042969 155.914062 116.957031 C 155.941406 116.863281 155.964844 116.761719 155.972656 116.664062 C 155.984375 116.527344 155.984375 116.390625 155.96875 116.257812 C 155.953125 116.113281 155.925781 115.976562 155.886719 115.859375 C 155.550781 114.796875 156.023438 114.570312 156.164062 114.527344 C 156.191406 114.519531 156.214844 114.511719 156.214844 114.511719 C 156.242188 114.511719 156.257812 114.507812 156.285156 114.507812 C 156.363281 114.507812 156.425781 114.503906 156.476562 114.492188 C 156.519531 114.480469 156.542969 114.472656 156.566406 114.457031 C 156.523438 114.417969 156.484375 114.375 156.441406 114.328125 C 156.390625 114.261719 156.335938 114.1875 156.292969 114.109375 C 156.265625 114.054688 156.242188 114.003906 156.234375 113.949219 C 156.214844 113.898438 156.207031 113.84375 156.207031 113.789062 C 156.199219 113.714844 156.210938 113.644531 156.234375 113.578125 C 156.253906 113.507812 156.28125 113.445312 156.328125 113.382812 C 156.367188 113.335938 156.410156 113.289062 156.464844 113.246094 C 156.511719 113.203125 156.570312 113.167969 156.636719 113.136719 C 156.664062 113.125 156.683594 113.109375 156.707031 113.09375 C 156.726562 113.078125 156.75 113.0625 156.765625 113.042969 C 156.785156 113.019531 156.804688 113 156.8125 112.976562 C 156.824219 112.957031 156.835938 112.9375 156.839844 112.921875 C 156.839844 112.90625 156.839844 112.890625 156.839844 112.878906 C 156.839844 112.867188 156.835938 112.863281 156.835938 112.851562 C 156.828125 112.847656 156.824219 112.835938 156.820312 112.832031 C 156.8125 112.824219 156.808594 112.816406 156.796875 112.808594 C 156.765625 112.777344 156.738281 112.746094 156.710938 112.714844 L 156.699219 112.703125 L 156.691406 112.703125 L 156.640625 112.609375 C 156.585938 112.511719 156.5625 112.40625 156.5625 112.292969 C 156.5625 112.183594 156.582031 112.074219 156.628906 111.964844 C 156.664062 111.882812 156.707031 111.804688 156.761719 111.726562 C 156.8125 111.648438 156.878906 111.570312 156.953125 111.492188 C 157.082031 111.355469 157.25 111.21875 157.433594 111.085938 C 157.597656 110.964844 157.789062 110.855469 157.980469 110.75 C 157.96875 110.726562 157.953125 110.695312 157.9375 110.660156 C 157.792969 110.390625 157.476562 110.035156 157.164062 109.675781 C 157.15625 109.675781 157.15625 109.671875 157.152344 109.671875 C 156.796875 109.273438 156.441406 108.871094 156.257812 108.523438 C 156.0625 108.152344 155.964844 107.695312 155.910156 107.125 C 155.855469 106.574219 155.84375 105.902344 155.835938 105.070312 C 155.835938 104.792969 155.828125 104.496094 155.824219 104.175781 C 155.820312 103.863281 155.808594 103.527344 155.796875 103.15625 C 155.796875 103.097656 155.792969 103.035156 155.785156 102.960938 C 155.78125 102.898438 155.777344 102.832031 155.769531 102.769531 C 155.667969 101.90625 155.328125 101.1875 154.816406 100.585938 C 154.242188 99.910156 153.453125 99.371094 152.554688 98.976562 C 151.976562 98.71875 151.359375 98.519531 150.726562 98.367188 C 150.089844 98.210938 149.429688 98.101562 148.78125 98.035156 C 148.695312 98.316406 148.523438 98.558594 148.304688 98.734375 C 148.046875 98.945312 147.710938 99.074219 147.339844 99.074219 C 146.988281 99.074219 146.660156 98.953125 146.394531 98.746094 C 146.167969 98.5625 145.996094 98.320312 145.90625 98.042969 L 139.816406 98.042969 C 139.734375 98.210938 139.617188 98.351562 139.472656 98.457031 C 139.289062 98.589844 139.070312 98.664062 138.832031 98.664062 C 138.53125 98.664062 138.261719 98.546875 138.0625 98.351562 C 137.871094 98.164062 137.75 97.898438 137.75 97.605469 C 137.75 97.316406 137.871094 97.054688 138.0625 96.859375 C 138.261719 96.667969 138.53125 96.550781 138.832031 96.550781 C 139.070312 96.550781 139.289062 96.628906 139.472656 96.757812 C 139.617188 96.863281 139.734375 97.007812 139.816406 97.175781 L 145.738281 97.175781 L 145.910156 97.152344 C 146.003906 96.878906 146.179688 96.636719 146.40625 96.460938 C 146.664062 96.257812 146.988281 96.140625 147.339844 96.140625 C 147.695312 96.140625 148.023438 96.257812 148.289062 96.464844 C 148.515625 96.644531 148.691406 96.886719 148.777344 97.167969 C 149.492188 97.230469 150.21875 97.347656 150.925781 97.523438 C 151.613281 97.691406 152.289062 97.90625 152.914062 98.183594 C 153.953125 98.640625 154.859375 99.261719 155.527344 100.0625 C 156.128906 100.777344 156.535156 101.644531 156.65625 102.679688 C 156.664062 102.753906 156.667969 102.828125 156.671875 102.90625 C 156.679688 102.972656 156.683594 103.050781 156.691406 103.136719 C 156.699219 103.492188 156.707031 103.835938 156.710938 104.160156 C 156.71875 104.476562 156.722656 104.777344 156.726562 105.066406 C 156.75 106.621094 156.761719 107.566406 157.054688 108.136719 C 157.191406 108.394531 157.503906 108.746094 157.820312 109.101562 L 157.820312 109.109375 C 157.996094 109.304688 158.175781 109.503906 158.332031 109.691406 C 158.488281 109.886719 158.625 110.082031 158.722656 110.261719 C 158.851562 110.5 158.917969 110.734375 158.882812 110.9375 C 158.851562 111.164062 158.710938 111.355469 158.445312 111.492188 C 158.265625 111.578125 158.105469 111.679688 157.960938 111.78125 C 157.820312 111.878906 157.695312 111.984375 157.597656 112.085938 C 157.5625 112.125 157.523438 112.164062 157.503906 112.199219 C 157.484375 112.214844 157.480469 112.230469 157.46875 112.242188 C 157.492188 112.261719 157.507812 112.289062 157.527344 112.308594 C 157.566406 112.363281 157.597656 112.410156 157.625 112.464844 C 157.675781 112.566406 157.707031 112.667969 157.722656 112.773438 C 157.734375 112.882812 157.726562 112.988281 157.707031 113.097656 C 157.683594 113.195312 157.648438 113.289062 157.597656 113.382812 C 157.550781 113.472656 157.484375 113.554688 157.417969 113.636719 C 157.363281 113.6875 157.304688 113.742188 157.238281 113.789062 C 157.21875 113.804688 157.195312 113.8125 157.175781 113.828125 C 157.195312 113.851562 157.21875 113.867188 157.226562 113.878906 C 157.292969 113.917969 157.339844 113.976562 157.382812 114.050781 C 157.421875 114.113281 157.449219 114.191406 157.464844 114.269531 C 157.476562 114.339844 157.480469 114.414062 157.46875 114.492188 C 157.464844 114.5625 157.453125 114.628906 157.425781 114.707031 C 157.398438 114.785156 157.355469 114.871094 157.296875 114.949219 C 157.242188 115.019531 157.179688 115.085938 157.097656 115.144531 C 157.007812 115.210938 156.894531 115.269531 156.761719 115.3125 C 156.722656 115.324219 156.683594 115.332031 156.640625 115.34375 C 156.667969 115.40625 156.699219 115.492188 156.734375 115.597656 C 156.785156 115.757812 156.828125 115.953125 156.851562 116.164062 C 156.867188 116.347656 156.871094 116.542969 156.851562 116.738281 C 156.839844 116.90625 156.808594 117.070312 156.753906 117.226562 C 156.707031 117.375 156.640625 117.515625 156.554688 117.648438 C 156.457031 117.792969 156.335938 117.929688 156.183594 118.046875 C 156.042969 118.152344 155.878906 118.234375 155.683594 118.292969 C 155.554688 118.335938 155.414062 118.363281 155.257812 118.371094 C 155.113281 118.386719 154.957031 118.382812 154.78125 118.367188 C 154.625 118.355469 154.507812 118.339844 154.394531 118.332031 L 154.371094 118.324219 C 153.671875 118.25 152.824219 118.160156 152.046875 118.332031 C 151.328125 118.488281 150.648438 118.875 150.191406 119.730469 C 150.359375 119.847656 150.503906 120.003906 150.605469 120.179688 C 150.734375 120.394531 150.8125 120.648438 150.8125 120.917969 C 150.8125 121.320312 150.644531 121.683594 150.371094 121.957031 C 150.101562 122.226562 149.722656 122.390625 149.304688 122.390625 C 148.886719 122.390625 148.507812 122.226562 148.238281 121.957031 C 147.972656 121.695312 147.800781 121.328125 147.800781 120.917969 C 147.800781 120.511719 147.964844 120.136719 148.238281 119.875 C 148.515625 119.609375 148.886719 119.445312 149.304688 119.445312 L 149.316406 119.445312 Z M 141.867188 114.496094 C 142.125 114.496094 142.359375 114.597656 142.53125 114.765625 C 142.699219 114.933594 142.808594 115.164062 142.808594 115.417969 C 142.808594 115.667969 142.699219 115.902344 142.53125 116.070312 C 142.359375 116.238281 142.125 116.335938 141.867188 116.335938 C 141.601562 116.335938 141.371094 116.238281 141.199219 116.070312 C 141.027344 115.902344 140.917969 115.667969 140.917969 115.417969 C 140.917969 115.164062 141.027344 114.933594 141.199219 114.765625 C 141.371094 114.597656 141.601562 114.496094 141.867188 114.496094 Z M 144.828125 114.003906 C 145.175781 114.003906 145.492188 114.117188 145.746094 114.320312 C 145.960938 114.488281 146.125 114.71875 146.210938 114.988281 L 151.914062 114.988281 C 152.003906 114.703125 152.175781 114.460938 152.402344 114.28125 C 152.660156 114.078125 152.988281 113.949219 153.355469 113.949219 C 153.769531 113.949219 154.140625 114.113281 154.421875 114.382812 C 154.6875 114.648438 154.859375 115.011719 154.859375 115.421875 C 154.859375 115.828125 154.6875 116.199219 154.421875 116.464844 C 154.144531 116.730469 153.773438 116.894531 153.355469 116.894531 C 152.996094 116.894531 152.667969 116.773438 152.402344 116.5625 C 152.175781 116.386719 152.003906 116.144531 151.914062 115.863281 L 146.210938 115.863281 C 146.125 116.128906 145.960938 116.359375 145.746094 116.53125 C 145.496094 116.726562 145.179688 116.84375 144.828125 116.84375 C 144.425781 116.84375 144.066406 116.683594 143.796875 116.433594 C 143.539062 116.175781 143.371094 115.824219 143.371094 115.421875 C 143.371094 115.035156 143.539062 114.675781 143.796875 114.417969 C 144.0625 114.160156 144.433594 114.003906 144.828125 114.003906 Z M 150.003906 104.441406 C 150.300781 104.441406 150.5625 104.554688 150.757812 104.746094 C 150.945312 104.933594 151.0625 105.191406 151.0625 105.476562 C 151.0625 105.761719 150.945312 106.015625 150.757812 106.207031 C 150.5625 106.394531 150.300781 106.511719 150.003906 106.511719 C 149.714844 106.511719 149.449219 106.394531 149.257812 106.207031 C 149.066406 106.023438 148.949219 105.761719 148.949219 105.476562 C 148.949219 105.191406 149.066406 104.929688 149.257812 104.746094 C 149.449219 104.554688 149.714844 104.441406 150.003906 104.441406 Z M 141.652344 101.3125 C 141.894531 101.3125 142.113281 101.40625 142.273438 101.5625 C 142.4375 101.722656 142.53125 101.9375 142.53125 102.175781 C 142.53125 102.417969 142.4375 102.632812 142.273438 102.785156 L 142.273438 102.789062 C 142.113281 102.941406 141.894531 103.042969 141.652344 103.042969 C 141.402344 103.042969 141.183594 102.941406 141.027344 102.789062 L 141.023438 102.785156 C 140.867188 102.632812 140.761719 102.417969 140.761719 102.175781 C 140.761719 101.9375 140.867188 101.722656 141.023438 101.5625 L 141.027344 101.5625 C 141.175781 101.40625 141.402344 101.3125 141.652344 101.3125 Z M 141.503906 107.863281 C 141.796875 107.863281 142.058594 107.976562 142.253906 108.164062 C 142.445312 108.351562 142.566406 108.609375 142.566406 108.898438 C 142.566406 109.183594 142.445312 109.441406 142.253906 109.628906 C 142.058594 109.8125 141.796875 109.929688 141.503906 109.929688 C 141.214844 109.929688 140.945312 109.8125 140.757812 109.628906 C 140.5625 109.441406 140.445312 109.183594 140.445312 108.898438 C 140.445312 108.609375 140.5625 108.351562 140.757812 108.164062 C 140.941406 107.976562 141.203125 107.863281 141.503906 107.863281 Z M 144.652344 98.730469 C 144.96875 98.730469 145.253906 98.855469 145.46875 99.058594 C 145.679688 99.261719 145.808594 99.546875 145.808594 99.859375 C 145.808594 100.175781 145.679688 100.449219 145.46875 100.660156 C 145.261719 100.863281 144.976562 100.992188 144.652344 100.992188 C 144.390625 100.992188 144.152344 100.90625 143.957031 100.765625 C 143.796875 100.644531 143.667969 100.488281 143.585938 100.296875 L 136.128906 100.296875 C 136.003906 100.296875 135.890625 100.25 135.808594 100.171875 C 135.730469 100.09375 135.679688 99.980469 135.679688 99.855469 C 135.679688 99.730469 135.730469 99.625 135.808594 99.546875 C 135.890625 99.464844 136.003906 99.417969 136.128906 99.417969 L 143.582031 99.417969 C 143.664062 99.234375 143.792969 99.074219 143.953125 98.957031 C 144.148438 98.816406 144.390625 98.730469 144.652344 98.730469 Z M 146.582031 104.007812 C 146.996094 104.007812 147.378906 104.171875 147.648438 104.441406 C 147.921875 104.703125 148.089844 105.070312 148.089844 105.480469 C 148.089844 105.890625 147.921875 106.257812 147.648438 106.523438 C 147.378906 106.789062 147.003906 106.953125 146.582031 106.953125 C 146.222656 106.953125 145.894531 106.828125 145.632812 106.621094 C 145.40625 106.441406 145.234375 106.203125 145.148438 105.921875 L 136.421875 105.921875 C 136.300781 105.921875 136.191406 105.871094 136.109375 105.792969 L 136.105469 105.792969 C 136.03125 105.710938 135.976562 105.605469 135.976562 105.488281 C 135.976562 105.367188 136.03125 105.261719 136.105469 105.179688 C 136.1875 105.101562 136.300781 105.050781 136.421875 105.050781 L 145.148438 105.050781 C 145.234375 104.769531 145.40625 104.53125 145.632812 104.351562 C 145.890625 104.136719 146.222656 104.007812 146.582031 104.007812 Z M 144.042969 101.039062 C 144.300781 101.039062 144.550781 101.121094 144.742188 101.269531 C 144.90625 101.390625 145.035156 101.554688 145.113281 101.742188 L 151.121094 101.742188 C 151.214844 101.464844 151.386719 101.21875 151.613281 101.039062 C 151.871094 100.832031 152.199219 100.707031 152.5625 100.707031 C 152.980469 100.707031 153.351562 100.875 153.628906 101.136719 C 153.898438 101.40625 154.066406 101.769531 154.066406 102.179688 C 154.066406 102.589844 153.898438 102.957031 153.628906 103.21875 C 153.355469 103.488281 152.984375 103.652344 152.5625 103.652344 C 152.203125 103.652344 151.875 103.53125 151.613281 103.324219 C 151.386719 103.140625 151.214844 102.898438 151.121094 102.621094 L 145.121094 102.621094 C 145.039062 102.808594 144.910156 102.972656 144.75 103.09375 C 144.554688 103.234375 144.308594 103.320312 144.050781 103.320312 C 143.726562 103.320312 143.4375 103.195312 143.222656 102.988281 C 143.011719 102.785156 142.878906 102.5 142.878906 102.179688 C 142.878906 101.871094 143.011719 101.585938 143.222656 101.371094 C 143.429688 101.164062 143.722656 101.039062 144.042969 101.039062 Z M 145.125 107.425781 C 145.480469 107.425781 145.8125 107.546875 146.078125 107.753906 C 146.304688 107.929688 146.476562 108.179688 146.5625 108.457031 L 152.214844 108.457031 C 152.300781 108.179688 152.472656 107.929688 152.699219 107.753906 C 152.957031 107.546875 153.285156 107.425781 153.652344 107.425781 C 154.066406 107.425781 154.445312 107.589844 154.714844 107.851562 C 154.984375 108.121094 155.15625 108.488281 155.15625 108.898438 C 155.15625 109.296875 154.992188 109.664062 154.714844 109.9375 C 154.445312 110.203125 154.070312 110.363281 153.652344 110.363281 C 153.289062 110.363281 152.960938 110.246094 152.699219 110.039062 C 152.472656 109.859375 152.300781 109.613281 152.214844 109.335938 L 146.5625 109.335938 C 146.476562 109.613281 146.304688 109.859375 146.078125 110.039062 C 145.820312 110.246094 145.484375 110.363281 145.125 110.363281 C 144.710938 110.363281 144.328125 110.203125 144.0625 109.9375 C 143.785156 109.671875 143.621094 109.304688 143.621094 108.898438 C 143.621094 108.492188 143.785156 108.121094 144.0625 107.851562 C 144.328125 107.589844 144.710938 107.425781 145.125 107.425781 Z M 145.125 107.425781 " fill-opacity="1" fill-rule="nonzero"/></g><g fill="#004aad" fill-opacity="1"><g transform="translate(165.182323, 117.105203)"><g><path d="M 3.953125 -5.28125 L 3.953125 0 L 1.03125 0 L 1.03125 -13.4375 L 7.109375 -13.4375 L 7.109375 -10.921875 L 3.953125 -10.921875 L 3.953125 -7.703125 L 6.890625 -7.703125 L 6.890625 -5.28125 Z M 3.953125 -5.28125 "/></g></g></g><g fill="#004aad" fill-opacity="1"><g transform="translate(177.077357, 117.105203)"><g><path d="M 3.953125 -2.453125 L 7.125 -2.453125 L 7.125 0 L 1.03125 0 L 1.03125 -13.4375 L 3.953125 -13.4375 Z M 3.953125 -2.453125 "/></g></g></g><g fill="#004aad" fill-opacity="1"><g transform="translate(188.661045, 117.105203)"><g><path d="M 3.953125 -2.40625 L 7.171875 -2.40625 L 7.171875 0 L 1.03125 0 L 1.03125 -13.4375 L 7.171875 -13.4375 L 7.171875 -11.0625 L 3.953125 -11.0625 L 3.953125 -7.90625 L 6.953125 -7.90625 L 6.953125 -5.625 L 3.953125 -5.625 Z M 3.953125 -2.40625 "/></g></g></g><g fill="#004aad" fill-opacity="1"><g transform="translate(200.597586, 117.105203)"><g><path d="M 8.828125 -13.4375 L 6.6875 -6.734375 L 9.09375 0 L 6.0625 0 L 4.65625 -4.6875 L 3.234375 0 L 0.1875 0 L 2.59375 -6.734375 L 0.5 -13.4375 L 3.328125 -13.4375 L 4.65625 -9.09375 L 5.984375 -13.4375 Z M 8.828125 -13.4375 "/></g></g></g><g fill="#139cb4" fill-opacity="1"><g transform="translate(214.084667, 117.105203)"><g><path d="M 6.375 -13.640625 C 8.09375 -13.640625 8.953125 -12.726562 8.953125 -10.90625 L 8.953125 0 L 6.046875 0 L 6.046875 -4.5 L 3.953125 -4.5 L 3.953125 0 L 1.03125 0 L 1.03125 -10.90625 C 1.03125 -12.726562 1.890625 -13.640625 3.609375 -13.640625 Z M 3.953125 -6.75 L 6.046875 -6.75 L 6.046875 -11.25 C 6.046875 -11.363281 6.003906 -11.460938 5.921875 -11.546875 C 5.847656 -11.628906 5.753906 -11.671875 5.640625 -11.671875 L 4.34375 -11.671875 C 4.226562 -11.671875 4.132812 -11.628906 4.0625 -11.546875 C 3.988281 -11.460938 3.953125 -11.363281 3.953125 -11.25 Z M 3.953125 -6.75 "/></g></g></g><g fill="#139cb4" fill-opacity="1"><g transform="translate(228.283638, 117.105203)"><g><path d="M 3.953125 -13.4375 L 3.953125 0 L 1.03125 0 L 1.03125 -13.4375 Z M 3.953125 -13.4375 "/></g></g></g></svg>